# xmcd CD database file
#
# Track frame offsets:
#	150
#	16017
#	28292
#	46375
#	73172
#	91572
#	107792
#	129473
#	149160
#	169252
#	187070
#	205490
#	224647
#	243850
#	261745
#	282227
#	299300
#	323205
#	344837
#
# Disc length: 4797 seconds
#
# Revision: 2
# Processed by: cddbd v1.5.2PL0 Copyright (c) Steve Scherf et al.
# Submitted via: CDex 1.70beta2
#
DISCID=4012bb13
DTITLE=Patti LaBelle - The Definitive Collection
DYEAR=2006
DGENRE=R&B
TTITLE0=Down The Aisle (The Wedding Song)
TTITLE1=Over The Rainbow 
TTITLE2=What Can I Do For You?
TTITLE3=The Best Is Yet To Come (w/ Grover Washington Jr)
TTITLE4=New Attitude
TTITLE5=Stir It Up
TTITLE6=On My Own (w/ Michael McDonald)
TTITLE7=Oh, People
TTITLE8=Kiss Away The Pain
TTITLE9=If You Asked Me To
TTITLE10=Yo Mister
TTITLE11=Feels Like Another One
TTITLE12=Somebody Loves You Baby (You Know Who It Is)
TTITLE13=When You've Been Blessed (Feels Like Heaven)
TTITLE14=The Right Kinda Lover
TTITLE15=When You Talk About Love
TTITLE16=Love Is Just A Whisper Away
TTITLE17=Don't Block The Blessing
TTITLE18=New Day
EXTD=YEAR: 2006
EXTT0=
EXTT1=
EXTT2=
EXTT3=
EXTT4=
EXTT5=
EXTT6=
EXTT7=
EXTT8=
EXTT9=
EXTT10=
EXTT11=
EXTT12=
EXTT13=
EXTT14=
EXTT15=
EXTT16=
EXTT17=
EXTT18=
PLAYORDER=
